<svg width="50" height="50" viewBox="0 0 50 50" fill="none" xmlns="http://www.w3.org/2000/svg">
<circle cx="25" cy="25" r="25" fill="#FF2622"/>
<path d="M21.8809 34.375C21.8809 33.9646 21.9617 33.5583 22.1187 33.1791C22.2758 32.8 22.506 32.4555 22.7962 32.1653C23.0863 31.8751 23.4308 31.6449 23.81 31.4879C24.1891 31.3308 24.5955 31.25 25.0059 31.25C25.4162 31.25 25.8226 31.3308 26.2017 31.4879C26.5809 31.6449 26.9254 31.8751 27.2156 32.1653C27.5058 32.4555 27.7359 32.8 27.893 33.1791C28.05 33.5583 28.1309 33.9646 28.1309 34.375C28.1309 35.2038 27.8016 35.9987 27.2156 36.5847C26.6295 37.1708 25.8347 37.5 25.0059 37.5C24.1771 37.5 23.3822 37.1708 22.7962 36.5847C22.2101 35.9987 21.8809 35.2038 21.8809 34.375ZM22.1871 15.6094C22.1455 15.2151 22.1872 14.8165 22.3096 14.4395C22.432 14.0624 22.6323 13.7153 22.8975 13.4206C23.1627 13.1259 23.4869 12.8903 23.849 12.729C24.2112 12.5677 24.6032 12.4844 24.9996 12.4844C25.396 12.4844 25.7881 12.5677 26.1502 12.729C26.5123 12.8903 26.8365 13.1259 27.1017 13.4206C27.3669 13.7153 27.5672 14.0624 27.6896 14.4395C27.812 14.8165 27.8537 15.2151 27.8121 15.6094L26.7184 26.5688C26.6739 26.9936 26.4737 27.387 26.1563 27.6729C25.8389 27.9589 25.4268 28.1171 24.9996 28.1171C24.5724 28.1171 24.1603 27.9589 23.8429 27.6729C23.5255 27.387 23.3253 26.9936 23.2809 26.5688L22.1871 15.6094Z" fill="white"/>
</svg>
