<svg width="50" height="50" viewBox="0 0 50 50" fill="none" xmlns="http://www.w3.org/2000/svg">
<circle cx="25" cy="25" r="25" fill="#149F54"/>
<path d="M20.8337 28.3333L33.1253 16.0417C33.5073 15.6597 33.9934 15.4688 34.5837 15.4688C35.1739 15.4688 35.66 15.6597 36.042 16.0417C36.4239 16.4236 36.6149 16.9097 36.6149 17.5C36.6149 18.0903 36.4239 18.5764 36.042 18.9583L22.292 32.7083C21.8753 33.125 21.3892 33.3333 20.8337 33.3333C20.2781 33.3333 19.792 33.125 19.3753 32.7083L13.9587 27.2917C13.5767 26.9097 13.3857 26.4236 13.3857 25.8333C13.3857 25.2431 13.5767 24.7569 13.9587 24.375C14.3406 23.9931 14.8267 23.8021 15.417 23.8021C16.0073 23.8021 16.4934 23.9931 16.8753 24.375L20.8337 28.3333Z" fill="white"/>
</svg>
