<svg width="31" height="31" viewBox="0 0 31 31" fill="none" xmlns="http://www.w3.org/2000/svg">
<path d="M15.1846 2.82996C8.28457 2.82996 2.68457 8.42996 2.68457 15.33C2.68457 22.23 8.28457 27.83 15.1846 27.83C22.0846 27.83 27.6846 22.23 27.6846 15.33C27.6846 8.42996 22.0846 2.82996 15.1846 2.82996ZM22.6846 16.255C22.5346 20.1175 19.3471 23.305 15.4846 23.455C13.7008 23.5265 11.9501 22.9589 10.5476 21.8544C9.14511 20.7498 8.18303 19.1808 7.83457 17.43C7.67207 16.6675 8.28457 15.955 9.05957 15.955C9.64707 15.955 10.1596 16.3675 10.2846 16.955C10.4153 17.5987 10.6717 18.2104 11.0391 18.755C11.4066 19.2995 11.8778 19.7663 12.4258 20.1285C12.9738 20.4908 13.5878 20.7414 14.2328 20.866C14.8778 20.9907 15.541 20.9869 16.1846 20.855C18.1346 20.48 19.7096 18.905 20.0846 16.955C20.2329 16.2284 20.2177 15.478 20.0402 14.758C19.8627 14.0381 19.5273 13.3666 19.0583 12.7923C18.5892 12.218 17.9983 11.7551 17.3283 11.4374C16.6584 11.1196 15.9261 10.9548 15.1846 10.955V13.1925C15.1846 13.755 14.5096 14.03 14.1221 13.63L10.6221 10.1425C10.3721 9.89246 10.3721 9.50496 10.6221 9.25496L14.1096 5.76746C14.5096 5.37996 15.1846 5.65496 15.1846 6.21746V8.45496C16.1947 8.4559 17.1943 8.66056 18.1236 9.05669C19.0529 9.45283 19.8927 10.0323 20.5928 10.7605C21.293 11.4886 21.8391 12.3505 22.1985 13.2946C22.5579 14.2387 22.7232 15.2455 22.6846 16.255Z" fill="#149F54"/>
</svg>
