<svg width="31" height="31" viewBox="0 0 31 31" fill="none" xmlns="http://www.w3.org/2000/svg">
<path d="M13.5645 17.58L10.877 14.8925C10.6478 14.6633 10.3561 14.5487 10.002 14.5487C9.64779 14.5487 9.35612 14.6633 9.12695 14.8925C8.89779 15.1216 8.7832 15.4133 8.7832 15.7675C8.7832 16.1216 8.89779 16.4133 9.12695 16.6425L12.6895 20.205C12.9395 20.455 13.2311 20.58 13.5645 20.58C13.8978 20.58 14.1895 20.455 14.4395 20.205L21.502 13.1425C21.7311 12.9133 21.8457 12.6216 21.8457 12.2675C21.8457 11.9133 21.7311 11.6216 21.502 11.3925C21.2728 11.1633 20.9811 11.0487 20.627 11.0487C20.2728 11.0487 19.9811 11.1633 19.752 11.3925L13.5645 17.58ZM15.3145 27.83C13.5853 27.83 11.9603 27.5016 10.4395 26.845C8.91862 26.1883 7.5957 25.2979 6.4707 24.1737C5.3457 23.0487 4.45529 21.7258 3.79945 20.205C3.14362 18.6841 2.81529 17.0591 2.81445 15.33C2.81445 13.6008 3.14279 11.9758 3.79945 10.455C4.45612 8.93412 5.34654 7.61121 6.4707 6.48621C7.5957 5.36121 8.91862 4.47079 10.4395 3.81496C11.9603 3.15912 13.5853 2.83079 15.3145 2.82996C17.0436 2.82996 18.6686 3.15829 20.1895 3.81496C21.7103 4.47162 23.0332 5.36204 24.1582 6.48621C25.2832 7.61121 26.174 8.93412 26.8307 10.455C27.4874 11.9758 27.8153 13.6008 27.8145 15.33C27.8145 17.0591 27.4861 18.6841 26.8295 20.205C26.1728 21.7258 25.2824 23.0487 24.1582 24.1737C23.0332 25.2987 21.7103 26.1895 20.1895 26.8462C18.6686 27.5029 17.0436 27.8308 15.3145 27.83Z" fill="white"/>
</svg>
