<svg width="64" height="103" viewBox="0 0 64 103" fill="none" xmlns="http://www.w3.org/2000/svg">
<path d="M24.0003 21.3332H29.3337V37.3332H24.0003V21.3332ZM34.667 2.6665H18.667V7.99984H34.667V2.6665ZM45.4137 19.7065C48.816 23.9502 50.6691 29.2274 50.667 34.6665C50.667 47.9198 40.0003 58.6665 26.667 58.6665C20.3018 58.6665 14.1973 56.1379 9.69643 51.6371C5.19556 47.1362 2.66699 41.0317 2.66699 34.6665C2.66699 28.3013 5.19556 22.1968 9.69643 17.6959C14.1973 13.1951 20.3018 10.6665 26.667 10.6665C32.3203 10.6665 37.5203 12.6398 41.6537 15.9998L45.4403 12.1598C46.8003 13.3332 48.0003 14.5598 49.2003 15.9198L45.4137 19.7065ZM45.3337 34.6665C45.3337 24.3465 36.987 15.9998 26.667 15.9998C16.347 15.9998 8.00033 24.3465 8.00033 34.6665C8.00033 44.9865 16.347 53.3332 26.667 53.3332C36.987 53.3332 45.3337 44.9865 45.3337 34.6665ZM56.0003 18.6665V34.6665H61.3337V18.6665H56.0003ZM56.0003 45.3332H61.3337V39.9998H56.0003V45.3332Z" fill="#FF6B6B"/>
<path d="M13.1982 97.3324C11.7947 97.3324 10.5902 96.9773 9.58452 96.267C8.58452 95.5511 7.81463 94.5199 7.27486 93.1733C6.74077 91.821 6.47372 90.1932 6.47372 88.2898C6.4794 86.3864 6.74929 84.767 7.28338 83.4318C7.82315 82.0909 8.59304 81.0682 9.59304 80.3636C10.5987 79.6591 11.8004 79.3068 13.1982 79.3068C14.5959 79.3068 15.7976 79.6591 16.8033 80.3636C17.8089 81.0682 18.5788 82.0909 19.1129 83.4318C19.6527 84.7727 19.9226 86.392 19.9226 88.2898C19.9226 90.1989 19.6527 91.8295 19.1129 93.1818C18.5788 94.5284 17.8089 95.5568 16.8033 96.267C15.8033 96.9773 14.6016 97.3324 13.1982 97.3324ZM13.1982 94.6648C14.2891 94.6648 15.1499 94.1278 15.7805 93.054C16.4169 91.9744 16.7351 90.3864 16.7351 88.2898C16.7351 86.9034 16.5902 85.7386 16.3004 84.7955C16.0107 83.8523 15.6016 83.142 15.0732 82.6648C14.5447 82.1818 13.9197 81.9403 13.1982 81.9403C12.1129 81.9403 11.255 82.4801 10.6243 83.5597C9.99361 84.6335 9.67543 86.2102 9.66974 88.2898C9.66406 89.6818 9.80327 90.8523 10.0874 91.8011C10.3771 92.75 10.7862 93.4659 11.3146 93.9489C11.843 94.4261 12.4709 94.6648 13.1982 94.6648ZM24.6889 94.9034C24.1719 94.9034 23.7287 94.7216 23.3594 94.358C22.9901 93.9886 22.8082 93.5455 22.8139 93.0284C22.8082 92.517 22.9901 92.0795 23.3594 91.7159C23.7287 91.3523 24.1719 91.1705 24.6889 91.1705C25.1889 91.1705 25.6236 91.3523 25.9929 91.7159C26.3679 92.0795 26.5582 92.517 26.5639 93.0284C26.5582 93.375 26.4673 93.6903 26.2912 93.9744C26.1207 94.2585 25.8935 94.4858 25.6094 94.6562C25.331 94.821 25.0241 94.9034 24.6889 94.9034ZM24.6889 86.2528C24.1719 86.2528 23.7287 86.071 23.3594 85.7074C22.9901 85.3381 22.8082 84.8949 22.8139 84.3778C22.8082 83.8665 22.9901 83.429 23.3594 83.0653C23.7287 82.696 24.1719 82.5114 24.6889 82.5114C25.1889 82.5114 25.6236 82.696 25.9929 83.0653C26.3679 83.429 26.5582 83.8665 26.5639 84.3778C26.5582 84.7187 26.4673 85.0312 26.2912 85.3153C26.1207 85.5994 25.8935 85.8267 25.6094 85.9972C25.331 86.1676 25.0241 86.2528 24.6889 86.2528ZM35.9794 97.2386C34.7521 97.2386 33.6612 97.0284 32.7067 96.608C31.7578 96.1875 31.0078 95.6023 30.4567 94.8523C29.9055 94.1023 29.6129 93.2358 29.5788 92.2528H32.7834C32.8118 92.7244 32.968 93.1364 33.2521 93.4886C33.5362 93.8352 33.9141 94.1051 34.3857 94.2983C34.8572 94.4915 35.3857 94.5881 35.9709 94.5881C36.5959 94.5881 37.1499 94.4801 37.6328 94.2642C38.1158 94.0426 38.4936 93.7358 38.7663 93.3438C39.0391 92.9517 39.1726 92.5 39.1669 91.9886C39.1726 91.4602 39.0362 90.9943 38.7578 90.5909C38.4794 90.1875 38.076 89.8722 37.5476 89.6449C37.0249 89.4176 36.3942 89.304 35.6555 89.304H34.1129V86.8665H35.6555C36.2635 86.8665 36.7947 86.7614 37.2493 86.5511C37.7095 86.3409 38.0703 86.0455 38.3317 85.6648C38.593 85.2784 38.7209 84.8324 38.7152 84.3267C38.7209 83.8324 38.6101 83.4034 38.3828 83.0398C38.1612 82.6705 37.8459 82.3835 37.4368 82.179C37.0334 81.9744 36.5589 81.8722 36.0135 81.8722C35.4794 81.8722 34.9851 81.9687 34.5305 82.1619C34.076 82.3551 33.7095 82.6307 33.4311 82.9886C33.1527 83.3409 33.005 83.7614 32.9879 84.25H29.9453C29.968 83.2727 30.2493 82.4148 30.7891 81.6761C31.3345 80.9318 32.0618 80.3523 32.9709 79.9375C33.88 79.517 34.8999 79.3068 36.0305 79.3068C37.1953 79.3068 38.2067 79.5256 39.0646 79.9631C39.9283 80.3949 40.5959 80.9773 41.0675 81.7102C41.5391 82.4432 41.7749 83.2528 41.7749 84.1392C41.7805 85.1222 41.4908 85.946 40.9055 86.6108C40.326 87.2756 39.5646 87.7102 38.6214 87.9148V88.0511C39.8487 88.2216 40.7891 88.6761 41.4425 89.4148C42.1016 90.1477 42.4283 91.0597 42.4226 92.1506C42.4226 93.1278 42.1442 94.0028 41.5874 94.7756C41.0362 95.5426 40.2749 96.1449 39.3033 96.5824C38.3374 97.0199 37.2294 97.2386 35.9794 97.2386ZM51.7997 97.3324C50.3963 97.3324 49.1918 96.9773 48.1861 96.267C47.1861 95.5511 46.4162 94.5199 45.8764 93.1733C45.3423 91.821 45.0753 90.1932 45.0753 88.2898C45.081 86.3864 45.3509 84.767 45.8849 83.4318C46.4247 82.0909 47.1946 81.0682 48.1946 80.3636C49.2003 79.6591 50.402 79.3068 51.7997 79.3068C53.1974 79.3068 54.3991 79.6591 55.4048 80.3636C56.4105 81.0682 57.1804 82.0909 57.7145 83.4318C58.2543 84.7727 58.5241 86.392 58.5241 88.2898C58.5241 90.1989 58.2543 91.8295 57.7145 93.1818C57.1804 94.5284 56.4105 95.5568 55.4048 96.267C54.4048 96.9773 53.2031 97.3324 51.7997 97.3324ZM51.7997 94.6648C52.8906 94.6648 53.7514 94.1278 54.3821 93.054C55.0185 91.9744 55.3366 90.3864 55.3366 88.2898C55.3366 86.9034 55.1918 85.7386 54.902 84.7955C54.6122 83.8523 54.2031 83.142 53.6747 82.6648C53.1463 82.1818 52.5213 81.9403 51.7997 81.9403C50.7145 81.9403 49.8565 82.4801 49.2259 83.5597C48.5952 84.6335 48.277 86.2102 48.2713 88.2898C48.2656 89.6818 48.4048 90.8523 48.6889 91.8011C48.9787 92.75 49.3878 93.4659 49.9162 93.9489C50.4446 94.4261 51.0724 94.6648 51.7997 94.6648Z" fill="#FF6B6B"/>
</svg>
