<svg width="30" height="30" viewBox="0 0 30 30" fill="none" xmlns="http://www.w3.org/2000/svg">
<path d="M13.3125 19.6875L19.4062 15.7812C19.6979 15.5937 19.8437 15.3333 19.8437 15C19.8437 14.6667 19.6979 14.4062 19.4062 14.2187L13.3125 10.3125C13 10.1042 12.6821 10.0883 12.3587 10.265C12.0354 10.4417 11.8742 10.7179 11.875 11.0937V18.9062C11.875 19.2812 12.0367 19.5575 12.36 19.735C12.6833 19.9125 13.0008 19.8967 13.3125 19.6875ZM15 27.5C13.2708 27.5 11.6458 27.1717 10.125 26.515C8.60417 25.8583 7.28125 24.9679 6.15625 23.8437C5.03125 22.7188 4.14083 21.3958 3.485 19.875C2.82917 18.3542 2.50083 16.7292 2.5 15C2.5 13.2708 2.82833 11.6458 3.485 10.125C4.14167 8.60417 5.03208 7.28125 6.15625 6.15625C7.28125 5.03125 8.60417 4.14083 10.125 3.485C11.6458 2.82917 13.2708 2.50083 15 2.5C16.7292 2.5 18.3542 2.82833 19.875 3.485C21.3958 4.14167 22.7188 5.03208 23.8437 6.15625C24.9687 7.28125 25.8596 8.60417 26.5162 10.125C27.1729 11.6458 27.5008 13.2708 27.5 15C27.5 16.7292 27.1717 18.3542 26.515 19.875C25.8583 21.3958 24.9679 22.7188 23.8437 23.8437C22.7188 24.9687 21.3958 25.8596 19.875 26.5162C18.3542 27.1729 16.7292 27.5008 15 27.5Z" fill="white"/>
</svg>
