<svg width="16" height="16" viewBox="0 0 16 16" fill="none" xmlns="http://www.w3.org/2000/svg">
<path d="M7.97715 1.49167C4.52715 1.49167 1.7334 4.29167 1.7334 7.74167C1.7334 11.1917 4.52715 13.9917 7.97715 13.9917C11.4334 13.9917 14.2334 11.1917 14.2334 7.74167C14.2334 4.29167 11.4334 1.49167 7.97715 1.49167ZM7.9834 12.7417C5.2209 12.7417 2.9834 10.5042 2.9834 7.74167C2.9834 4.97917 5.2209 2.74167 7.9834 2.74167C10.7459 2.74167 12.9834 4.97917 12.9834 7.74167C12.9834 10.5042 10.7459 12.7417 7.9834 12.7417ZM8.2959 4.61667H7.3584V8.36667L10.6396 10.3354L11.1084 9.56667L8.2959 7.89792V4.61667Z" fill="#9E9F9E"/>
</svg>
