<svg width="66" height="66" viewBox="0 0 66 66" fill="none" xmlns="http://www.w3.org/2000/svg">
<path d="M43.8978 52.3525C42.4082 52.3525 41.1326 51.8216 40.0709 50.76C39.0092 49.6983 38.4793 48.4236 38.4811 46.9358V19.8525C38.4811 18.3629 39.012 17.0873 40.0736 16.0256C41.1353 14.9639 42.41 14.434 43.8978 14.4358C45.3874 14.4358 46.663 14.9666 47.7247 16.0283C48.7863 17.09 49.3163 18.3647 49.3145 19.8525V46.9358C49.3145 48.4254 48.7836 49.701 47.722 50.7627C46.6603 51.8243 45.3856 52.3543 43.8978 52.3525ZM22.2311 52.3525C20.7415 52.3525 19.4659 51.8216 18.4042 50.76C17.3426 49.6983 16.8127 48.4236 16.8145 46.9358V19.8525C16.8145 18.3629 17.3453 17.0873 18.407 16.0256C19.4686 14.9639 20.7433 14.434 22.2311 14.4358C23.7207 14.4358 24.9963 14.9666 26.058 16.0283C27.1197 17.09 27.6496 18.3647 27.6478 19.8525V46.9358C27.6478 48.4254 27.117 49.701 26.0553 50.7627C24.9936 51.8243 23.7189 52.3543 22.2311 52.3525Z" fill="white"/>
</svg>
