<svg width="48" height="48" viewBox="0 0 48 48" fill="none" xmlns="http://www.w3.org/2000/svg">
<path fill-rule="evenodd" clip-rule="evenodd" d="M43.5 24C43.5 29.1717 41.4455 34.1316 37.7886 37.7886C34.1316 41.4455 29.1717 43.5 24 43.5C18.8283 43.5 13.8684 41.4455 10.2114 37.7886C6.55446 34.1316 4.5 29.1717 4.5 24C4.5 18.8283 6.55446 13.8684 10.2114 10.2114C13.8684 6.55446 18.8283 4.5 24 4.5C29.1717 4.5 34.1316 6.55446 37.7886 10.2114C41.4455 13.8684 43.5 18.8283 43.5 24ZM48 24C48 30.3652 45.4714 36.4697 40.9706 40.9706C36.4697 45.4714 30.3652 48 24 48C17.6348 48 11.5303 45.4714 7.02944 40.9706C2.52856 36.4697 0 30.3652 0 24C0 17.6348 2.52856 11.5303 7.02944 7.02944C11.5303 2.52856 17.6348 0 24 0C30.3652 0 36.4697 2.52856 40.9706 7.02944C45.4714 11.5303 48 17.6348 48 24ZM14.781 14.97C13.926 16.257 13.5 17.529 13.5 18.78C13.5 19.389 13.77 19.956 14.31 20.478C14.85 21 15.51 21.258 16.293 21.258C17.622 21.258 18.525 20.514 19.002 19.02C19.506 17.595 20.121 16.515 20.85 15.78C21.579 15.048 22.71 14.682 24.252 14.682C25.569 14.682 26.643 15.042 27.477 15.771C28.308 16.497 28.725 17.391 28.725 18.447C28.7286 18.9768 28.5876 19.4975 28.317 19.953C28.0419 20.4174 27.7025 20.8406 27.309 21.21C26.6778 21.7872 26.0295 22.3454 25.365 22.884C24.345 23.73 23.532 24.459 22.929 25.074C22.329 25.689 21.843 26.403 21.48 27.213C20.514 30.948 25.53 31.248 26.688 28.581C26.829 28.323 27.042 28.041 27.327 27.729C27.615 27.42 27.996 27.06 28.473 26.649C29.6867 25.638 30.881 24.6038 32.055 23.547C32.718 22.935 33.291 22.203 33.774 21.357C34.2719 20.4542 34.5224 19.4358 34.5 18.405C34.5 16.98 34.077 15.66 33.228 14.445C32.382 13.227 31.182 12.267 29.628 11.559C28.074 10.854 26.283 10.5 24.252 10.5C22.068 10.5 20.157 10.92 18.519 11.769C16.881 12.615 15.636 13.683 14.781 14.97ZM21.201 36.21C21.201 37.0056 21.5171 37.7687 22.0797 38.3313C22.6423 38.8939 23.4054 39.21 24.201 39.21C24.9967 39.21 25.7597 38.8939 26.3223 38.3313C26.8849 37.7687 27.201 37.0056 27.201 36.21C27.201 35.4143 26.8849 34.6513 26.3223 34.0887C25.7597 33.5261 24.9967 33.21 24.201 33.21C23.4054 33.21 22.6423 33.5261 22.0797 34.0887C21.5171 34.6513 21.201 35.4143 21.201 36.21Z" fill="#9E9F9E"/>
</svg>
