<svg width="16" height="16" viewBox="0 0 16 16" fill="none" xmlns="http://www.w3.org/2000/svg">
<path d="M3.6084 13.9917C3.26465 13.9917 2.97027 13.8692 2.72527 13.6242C2.48027 13.3792 2.35798 13.085 2.3584 12.7417V3.99167C2.3584 3.64792 2.4809 3.35354 2.7259 3.10854C2.9709 2.86354 3.26507 2.74125 3.6084 2.74167H4.2334V1.49167H5.4834V2.74167H10.4834V1.49167H11.7334V2.74167H12.3584C12.7021 2.74167 12.9965 2.86417 13.2415 3.10917C13.4865 3.35417 13.6088 3.64834 13.6084 3.99167V12.7417C13.6084 13.0854 13.4859 13.3798 13.2409 13.6248C12.9959 13.8698 12.7017 13.9921 12.3584 13.9917H3.6084ZM3.6084 12.7417H12.3584V6.49167H3.6084V12.7417Z" fill="#9E9F9E"/>
</svg>
