<svg width="220" height="219" viewBox="0 0 220 219" fill="none" xmlns="http://www.w3.org/2000/svg">
<g clip-path="url(#clip0_5825_29297)">
<path d="M175.213 174.715C211.23 138.698 211.23 80.3025 175.213 44.2855C139.196 8.26847 80.8009 8.26847 44.7839 44.2855C8.76688 80.3025 8.76688 138.698 44.7839 174.715C80.8009 210.732 139.196 210.732 175.213 174.715Z" stroke="#149F54" stroke-width="1.00613" stroke-miterlimit="10"/>
<path d="M168.706 168.207C201.129 135.784 201.129 83.2154 168.706 50.7922C136.283 18.369 83.7145 18.369 51.2913 50.7922C18.8681 83.2154 18.8681 135.784 51.2913 168.207C83.7145 200.63 136.283 200.63 168.706 168.207Z" fill="#E6E6E6"/>
<path d="M167.471 167.489C199.223 135.737 199.223 84.2583 167.471 52.507C135.72 20.7558 84.2411 20.7558 52.4898 52.507C20.7385 84.2583 20.7385 135.737 52.4898 167.489C84.2411 199.24 135.72 199.24 167.471 167.489Z" fill="#F94C4C"/>
<path d="M187.071 186.571C229.636 144.006 229.636 74.9933 187.071 32.4278C144.505 -10.1378 75.4927 -10.1378 32.9272 32.4278C-9.63834 74.9933 -9.63834 144.006 32.9272 186.571C75.4927 229.137 144.505 229.137 187.071 186.571Z" stroke="#149F54" stroke-width="1.00613" stroke-miterlimit="10"/>
<path d="M125.59 64.5582V75.4523C125.59 82.4899 118.455 88.4852 109.738 88.3663C101.265 88.2514 94.415 82.6512 94.415 75.7849V64.5582C94.415 63.5744 93.4261 62.7761 92.2075 62.7761C90.9889 62.7761 90 63.5744 90 64.5582V75.3878C90 84.1308 98.4055 91.5878 109.228 91.9184C120.606 92.2651 130 84.8949 130 75.7849V64.5582C130 63.5744 129.011 62.7761 127.792 62.7761C126.579 62.7761 125.59 63.5744 125.59 64.5582Z" fill="white"/>
<path d="M110.005 85.1614C103.617 85.1614 98.3906 80.9421 98.3906 75.7853V55.3761C98.3906 50.2193 103.617 46 110.005 46C116.393 46 121.619 50.2193 121.619 55.3761V75.7853C121.619 80.9421 116.393 85.1614 110.005 85.1614Z" fill="white"/>
<path d="M111.288 104.258H108.721C107.912 104.258 107.258 103.73 107.258 103.077V89.572H112.749V103.077C112.752 103.73 112.097 104.258 111.288 104.258Z" fill="white"/>
<path d="M119.229 106H100.782C99.4184 106 98.3047 105.101 98.3047 104C98.3047 102.9 99.4184 102 100.782 102H119.229C120.592 102 121.706 102.9 121.706 104C121.706 105.099 120.59 106 119.229 106Z" fill="white"/>
</g>
<defs>
<clipPath id="clip0_5825_29297">
<rect width="219" height="219" fill="white" transform="translate(0.5)"/>
</clipPath>
</defs>
</svg>
